<svg width="686" height="670" viewBox="0 0 686 670" fill="none" xmlns="http://www.w3.org/2000/svg">
<path d="M633.474 531.596H554.647C427.649 531.596 300.652 532.508 173.836 532.873C173.836 532.873 134.423 531.596 99.7542 524.476C15.4539 506.952 43.7365 438.133 60.3411 379.354C75.121 326.782 97.9295 274.026 142.634 170.342C144.641 165.778 149.203 155.373 159.786 148.984C166.173 144.968 173.836 143.143 182.777 143.143C201.754 143.143 214.709 151.357 221.825 170.342C221.825 170.342 294.448 362.743 333.313 465.88H487.316L349.371 102.983C321.271 28.5051 266.895 0.0283203 184.054 0.0283203C101.214 0.0283203 45.7436 28.5051 16.1838 102.983L10.8922 116.491C-8.6319 165.961 -28.156 215.247 -47.6801 264.717C-96.3991 388.116 -167.562 516.81 -32.5352 615.383C14.1766 649.519 78.9528 669.234 165.808 669.234C322.365 669.234 478.74 669.234 635.298 669.234H685.842L633.656 531.596H633.474Z" fill="#2D2E32"/>
</svg>
