<svg width="1348" height="187" viewBox="0 0 1348 187" fill="none" xmlns="http://www.w3.org/2000/svg">
<g opacity="0.9">
<path d="M-86.75 182V5H-43.75V182H-86.75ZM105.34 182L34.0898 66.25H33.3398L34.3398 182H-7.16015V5H41.5898L112.59 120.5H113.34L112.34 5H153.84V182H105.34ZM266.1 41.5V182H223.35V41.5H173.35V5H316.1V41.5H266.1ZM430.363 182L392.113 111.75H377.613V182H335.613V5H403.113C411.613 5 419.863 5.91666 427.863 7.74999C436.03 9.41666 443.28 12.3333 449.613 16.5C456.113 20.6667 461.28 26.1667 465.113 33C468.947 39.8333 470.863 48.3333 470.863 58.5C470.863 70.5 467.613 80.5833 461.113 88.75C454.613 96.9167 445.613 102.75 434.113 106.25L480.363 182H430.363ZM428.613 59.25C428.613 55.0833 427.697 51.75 425.863 49.25C424.197 46.5833 421.947 44.5833 419.113 43.25C416.447 41.75 413.363 40.75 409.863 40.25C406.53 39.75 403.28 39.5 400.113 39.5H377.363V80.75H397.613C401.113 80.75 404.697 80.5 408.363 80C412.03 79.3333 415.363 78.25 418.363 76.75C421.363 75.25 423.78 73.0833 425.613 70.25C427.613 67.4167 428.613 63.75 428.613 59.25ZM685.885 92.75C685.885 106.75 683.468 119.583 678.635 131.25C673.801 142.75 667.051 152.667 658.385 161C649.885 169.167 639.718 175.5 627.885 180C616.051 184.5 603.218 186.75 589.385 186.75C575.551 186.75 562.718 184.5 550.885 180C539.218 175.5 529.051 169.167 520.385 161C511.885 152.667 505.218 142.75 500.385 131.25C495.551 119.583 493.135 106.75 493.135 92.75C493.135 78.5833 495.551 65.8333 500.385 54.5C505.218 43 511.885 33.25 520.385 25.25C529.051 17.25 539.218 11.0833 550.885 6.74999C562.718 2.41665 575.551 0.249986 589.385 0.249986C603.218 0.249986 616.051 2.41665 627.885 6.74999C639.718 11.0833 649.885 17.25 658.385 25.25C667.051 33.25 673.801 43 678.635 54.5C683.468 65.8333 685.885 78.5833 685.885 92.75ZM640.135 92.75C640.135 85.0833 638.885 77.9167 636.385 71.25C633.885 64.5833 630.385 58.9167 625.885 54.25C621.551 49.4167 616.218 45.6667 609.885 43C603.718 40.1667 596.885 38.75 589.385 38.75C581.885 38.75 575.051 40.1667 568.885 43C562.718 45.6667 557.385 49.4167 552.885 54.25C548.385 58.9167 544.885 64.5833 542.385 71.25C540.051 77.9167 538.885 85.0833 538.885 92.75C538.885 100.75 540.135 108.167 542.635 115C545.135 121.667 548.551 127.417 552.885 132.25C557.385 137.083 562.718 140.917 568.885 143.75C575.051 146.417 581.885 147.75 589.385 147.75C596.885 147.75 603.718 146.417 609.885 143.75C616.051 140.917 621.385 137.083 625.885 132.25C630.385 127.417 633.885 121.667 636.385 115C638.885 108.167 640.135 100.75 640.135 92.75ZM879.281 93C879.281 108.5 876.365 121.917 870.531 133.25C864.865 144.417 857.281 153.667 847.781 161C838.448 168.167 827.865 173.5 816.031 177C804.198 180.333 792.198 182 780.031 182H714.031V5H778.031C790.531 5 802.865 6.49999 815.031 9.49999C827.198 12.3333 838.031 17.1667 847.531 24C857.031 30.6667 864.698 39.6667 870.531 51C876.365 62.3333 879.281 76.3333 879.281 93ZM834.781 93C834.781 83 833.115 74.75 829.781 68.25C826.615 61.5833 822.281 56.3333 816.781 52.5C811.448 48.5 805.281 45.6667 798.281 44C791.448 42.3333 784.365 41.5 777.031 41.5H755.781V145H776.031C783.698 145 791.031 144.167 798.031 142.5C805.198 140.667 811.448 137.75 816.781 133.75C822.281 129.75 826.615 124.417 829.781 117.75C833.115 111.083 834.781 102.833 834.781 93ZM1057.63 115.25C1057.63 125.917 1055.8 135.667 1052.13 144.5C1048.63 153.167 1043.55 160.667 1036.88 167C1030.22 173.167 1022.13 178 1012.63 181.5C1003.3 185 992.885 186.75 981.385 186.75C969.718 186.75 959.218 185 949.885 181.5C940.551 178 932.635 173.167 926.135 167C919.635 160.667 914.635 153.167 911.135 144.5C907.635 135.667 905.885 125.917 905.885 115.25V5H948.385V111.75C948.385 116.583 948.968 121.167 950.135 125.5C951.468 129.833 953.385 133.75 955.885 137.25C958.551 140.583 961.968 143.25 966.135 145.25C970.468 147.25 975.635 148.25 981.635 148.25C987.635 148.25 992.718 147.25 996.885 145.25C1001.22 143.25 1004.72 140.583 1007.38 137.25C1010.05 133.75 1011.97 129.833 1013.13 125.5C1014.3 121.167 1014.88 116.583 1014.88 111.75V5H1057.63V115.25ZM1247.96 157.5C1240.12 166.5 1230.46 173.667 1218.96 179C1207.46 184.167 1194.21 186.75 1179.21 186.75C1165.54 186.75 1152.87 184.5 1141.21 180C1129.71 175.5 1119.71 169.167 1111.21 161C1102.71 152.667 1096.04 142.75 1091.21 131.25C1086.37 119.75 1083.96 107.083 1083.96 93.25C1083.96 79.0833 1086.37 66.25 1091.21 54.75C1096.21 43.25 1103.04 33.5 1111.71 25.5C1120.37 17.3333 1130.54 11.0833 1142.21 6.74999C1153.87 2.41665 1166.46 0.249986 1179.96 0.249986C1192.46 0.249986 1204.71 2.49999 1216.71 6.99999C1228.87 11.3333 1238.71 17.75 1246.21 26.25L1217.21 55.25C1213.21 49.75 1207.96 45.6667 1201.46 43C1194.96 40.3333 1188.29 39 1181.46 39C1173.96 39 1167.04 40.4167 1160.71 43.25C1154.54 45.9167 1149.21 49.6667 1144.71 54.5C1140.21 59.3333 1136.71 65.0833 1134.21 71.75C1131.71 78.25 1130.46 85.4167 1130.46 93.25C1130.46 101.25 1131.71 108.583 1134.21 115.25C1136.71 121.917 1140.12 127.667 1144.46 132.5C1148.96 137.167 1154.29 140.833 1160.46 143.5C1166.62 146.167 1173.37 147.5 1180.71 147.5C1189.21 147.5 1196.62 145.833 1202.96 142.5C1209.29 139.167 1214.37 134.833 1218.21 129.5L1247.96 157.5ZM1340.56 41.5V182H1297.81V41.5H1247.81V5H1390.56V41.5H1340.56ZM1410.08 182V5H1453.08V182H1410.08ZM1674.17 92.75C1674.17 106.75 1671.75 119.583 1666.92 131.25C1662.08 142.75 1655.33 152.667 1646.67 161C1638.17 169.167 1628 175.5 1616.17 180C1604.33 184.5 1591.5 186.75 1577.67 186.75C1563.83 186.75 1551 184.5 1539.17 180C1527.5 175.5 1517.33 169.167 1508.67 161C1500.17 152.667 1493.5 142.75 1488.67 131.25C1483.83 119.583 1481.42 106.75 1481.42 92.75C1481.42 78.5833 1483.83 65.8333 1488.67 54.5C1493.5 43 1500.17 33.25 1508.67 25.25C1517.33 17.25 1527.5 11.0833 1539.17 6.74999C1551 2.41665 1563.83 0.249986 1577.67 0.249986C1591.5 0.249986 1604.33 2.41665 1616.17 6.74999C1628 11.0833 1638.17 17.25 1646.67 25.25C1655.33 33.25 1662.08 43 1666.92 54.5C1671.75 65.8333 1674.17 78.5833 1674.17 92.75ZM1628.42 92.75C1628.42 85.0833 1627.17 77.9167 1624.67 71.25C1622.17 64.5833 1618.67 58.9167 1614.17 54.25C1609.83 49.4167 1604.5 45.6667 1598.17 43C1592 40.1667 1585.17 38.75 1577.67 38.75C1570.17 38.75 1563.33 40.1667 1557.17 43C1551 45.6667 1545.67 49.4167 1541.17 54.25C1536.67 58.9167 1533.17 64.5833 1530.67 71.25C1528.33 77.9167 1527.17 85.0833 1527.17 92.75C1527.17 100.75 1528.42 108.167 1530.92 115C1533.42 121.667 1536.83 127.417 1541.17 132.25C1545.67 137.083 1551 140.917 1557.17 143.75C1563.33 146.417 1570.17 147.75 1577.67 147.75C1585.17 147.75 1592 146.417 1598.17 143.75C1604.33 140.917 1609.67 137.083 1614.17 132.25C1618.67 127.417 1622.17 121.667 1624.67 115C1627.17 108.167 1628.42 100.75 1628.42 92.75ZM1814.81 182L1743.56 66.25H1742.81L1743.81 182H1702.31V5H1751.06L1822.06 120.5H1822.81L1821.81 5H1863.31V182H1814.81Z" fill="url(#paint0_linear_80_147)" style="mix-blend-mode:overlay"/>
</g>
<defs>
<linearGradient id="paint0_linear_80_147" x1="888.5" y1="-9" x2="888.5" y2="215" gradientUnits="userSpaceOnUse">
<stop stop-color="white"/>
<stop offset="1" stop-color="#5B5A5A"/>
</linearGradient>
</defs>
</svg>
