<svg width="965" height="187" viewBox="0 0 965 187" fill="none" xmlns="http://www.w3.org/2000/svg">
<g opacity="0.9">
<path d="M71.1543 121.5C71.1543 128.5 70.321 135.833 68.6543 143.5C67.1543 151.167 64.2376 158.25 59.9043 164.75C55.7376 171.083 49.821 176.333 42.1543 180.5C34.6543 184.667 24.9043 186.75 12.9043 186.75C-2.0957 186.75 -14.5957 182.917 -24.5957 175.25C-34.5957 167.417 -41.2624 157.417 -44.5957 145.25L-6.8457 132.5C-5.67904 137.167 -3.5957 140.917 -0.595701 143.75C2.57096 146.583 6.4043 148 10.9043 148C17.9043 148 22.4876 145.583 24.6543 140.75C26.9876 135.917 28.1543 129.583 28.1543 121.75V5H71.1543V121.5ZM291.229 92.75C291.229 106.75 288.812 119.583 283.979 131.25C279.145 142.75 272.395 152.667 263.729 161C255.229 169.167 245.062 175.5 233.229 180C221.395 184.5 208.562 186.75 194.729 186.75C180.895 186.75 168.062 184.5 156.229 180C144.562 175.5 134.395 169.167 125.729 161C117.229 152.667 110.562 142.75 105.729 131.25C100.895 119.583 98.4785 106.75 98.4785 92.75C98.4785 78.5833 100.895 65.8333 105.729 54.5C110.562 43 117.229 33.25 125.729 25.25C134.395 17.25 144.562 11.0833 156.229 6.74999C168.062 2.41665 180.895 0.249986 194.729 0.249986C208.562 0.249986 221.395 2.41665 233.229 6.74999C245.062 11.0833 255.229 17.25 263.729 25.25C272.395 33.25 279.145 43 283.979 54.5C288.812 65.8333 291.229 78.5833 291.229 92.75ZM245.479 92.75C245.479 85.0833 244.229 77.9167 241.729 71.25C239.229 64.5833 235.729 58.9167 231.229 54.25C226.895 49.4167 221.562 45.6667 215.229 43C209.062 40.1667 202.229 38.75 194.729 38.75C187.229 38.75 180.395 40.1667 174.229 43C168.062 45.6667 162.729 49.4167 158.229 54.25C153.729 58.9167 150.229 64.5833 147.729 71.25C145.395 77.9167 144.229 85.0833 144.229 92.75C144.229 100.75 145.479 108.167 147.979 115C150.479 121.667 153.895 127.417 158.229 132.25C162.729 137.083 168.062 140.917 174.229 143.75C180.395 146.417 187.229 147.75 194.729 147.75C202.229 147.75 209.062 146.417 215.229 143.75C221.395 140.917 226.729 137.083 231.229 132.25C235.729 127.417 239.229 121.667 241.729 115C244.229 108.167 245.479 100.75 245.479 92.75ZM319.375 182V5H362.375V182H319.375ZM511.465 182L440.215 66.25H439.465L440.465 182H398.965V5H447.715L518.715 120.5H519.465L518.465 5H559.965V182H511.465ZM808.975 115.25C808.975 125.917 807.141 135.667 803.475 144.5C799.975 153.167 794.891 160.667 788.225 167C781.558 173.167 773.475 178 763.975 181.5C754.641 185 744.225 186.75 732.725 186.75C721.058 186.75 710.558 185 701.225 181.5C691.891 178 683.975 173.167 677.475 167C670.975 160.667 665.975 153.167 662.475 144.5C658.975 135.667 657.225 125.917 657.225 115.25V5H699.725V111.75C699.725 116.583 700.308 121.167 701.475 125.5C702.808 129.833 704.725 133.75 707.225 137.25C709.891 140.583 713.308 143.25 717.475 145.25C721.808 147.25 726.975 148.25 732.975 148.25C738.975 148.25 744.058 147.25 748.225 145.25C752.558 143.25 756.058 140.583 758.725 137.25C761.391 133.75 763.308 129.833 764.475 125.5C765.641 121.167 766.225 116.583 766.225 111.75V5H808.975V115.25ZM937.045 51C933.378 46.3333 928.545 42.6667 922.545 40C916.712 37.1667 911.045 35.75 905.545 35.75C902.712 35.75 899.795 36 896.795 36.5C893.962 37 891.378 38 889.045 39.5C886.712 40.8333 884.712 42.6667 883.045 45C881.545 47.1667 880.795 50 880.795 53.5C880.795 56.5 881.378 59 882.545 61C883.878 63 885.712 64.75 888.045 66.25C890.545 67.75 893.462 69.1667 896.795 70.5C900.128 71.6667 903.878 72.9167 908.045 74.25C914.045 76.25 920.295 78.5 926.795 81C933.295 83.3333 939.212 86.5 944.545 90.5C949.878 94.5 954.295 99.5 957.795 105.5C961.295 111.333 963.045 118.667 963.045 127.5C963.045 137.667 961.128 146.5 957.295 154C953.628 161.333 948.628 167.417 942.295 172.25C935.962 177.083 928.712 180.667 920.545 183C912.378 185.333 903.962 186.5 895.295 186.5C882.628 186.5 870.378 184.333 858.545 180C846.712 175.5 836.878 169.167 829.045 161L857.045 132.5C861.378 137.833 867.045 142.333 874.045 146C881.212 149.5 888.295 151.25 895.295 151.25C898.462 151.25 901.545 150.917 904.545 150.25C907.545 149.583 910.128 148.5 912.295 147C914.628 145.5 916.462 143.5 917.795 141C919.128 138.5 919.795 135.5 919.795 132C919.795 128.667 918.962 125.833 917.295 123.5C915.628 121.167 913.212 119.083 910.045 117.25C907.045 115.25 903.212 113.5 898.545 112C894.045 110.333 888.878 108.583 883.045 106.75C877.378 104.917 871.795 102.75 866.295 100.25C860.962 97.75 856.128 94.5833 851.795 90.75C847.628 86.75 844.212 82 841.545 76.5C839.045 70.8333 837.795 64 837.795 56C837.795 46.1667 839.795 37.75 843.795 30.75C847.795 23.75 853.045 18 859.545 13.5C866.045 8.99999 873.378 5.74999 881.545 3.74999C889.712 1.58333 897.962 0.499997 906.295 0.499997C916.295 0.499997 926.462 2.33333 936.795 5.99999C947.295 9.66666 956.462 15.0833 964.295 22.25L937.045 51Z" fill="url(#paint0_linear_427_1017)" style="mix-blend-mode:overlay"/>
</g>
<defs>
<linearGradient id="paint0_linear_427_1017" x1="464.5" y1="-9" x2="464.5" y2="215" gradientUnits="userSpaceOnUse">
<stop stop-color="white"/>
<stop offset="1" stop-color="#5B5A5A"/>
</linearGradient>
</defs>
</svg>
