<svg width="209" height="32" viewBox="0 0 209 32" fill="none" xmlns="http://www.w3.org/2000/svg">
<g clip-path="url(#clip0_587_223)">
<path d="M84.6645 24.7566H80.9918C75.0747 24.7566 69.1576 24.7991 63.249 24.8161C63.249 24.8161 61.4126 24.7566 59.7973 24.4251C55.8696 23.6089 57.1873 20.4038 57.961 17.6663C58.6496 15.2178 59.7123 12.7609 61.7952 7.93198C61.8887 7.71944 62.1013 7.23485 62.5944 6.9373C62.8919 6.75026 63.249 6.66525 63.6656 6.66525C64.5497 6.66525 65.1533 7.04782 65.4849 7.93198C65.4849 7.93198 68.8685 16.8927 70.6794 21.6961H77.8547L71.4275 4.7949C70.1183 1.32625 67.5848 0 63.7251 0C59.8653 0 57.2809 1.32625 55.9036 4.7949L55.6571 5.42402C54.7474 7.72795 53.8377 10.0234 52.928 12.3273C50.6581 18.0744 47.3425 24.068 53.6337 28.6589C55.8101 30.2487 58.8281 31.1668 62.8749 31.1668C70.1693 31.1668 77.4551 31.1668 84.7495 31.1668H87.1044L84.673 24.7566H84.6645Z" fill="#182B84"/>
<path d="M98.2415 25.1987H94.7559L101.107 9.13074C101.778 7.44742 103.011 6.8013 104.907 6.8013C106.803 6.8013 108.01 7.44742 108.656 9.13074L114.76 25.1987H111.249L105.757 10.6525C105.595 10.2274 105.298 10.0404 104.873 10.0404C104.448 10.0404 104.15 10.2274 103.963 10.6525L98.233 25.1987H98.2415Z" fill="#182B84"/>
<path d="M132.936 6.95432V10.1169H125.489C122.003 10.1169 120.482 11.8597 120.482 16.0085C120.482 20.1573 121.978 21.8746 125.489 21.8746H128.49C130.258 21.8746 131.007 20.8034 131.007 19.3326C131.007 17.8619 130.258 17.0287 128.788 17.0287H124.766V14.2742H129.102C132.316 14.2742 133.897 16.2551 133.897 19.3921C133.897 22.5292 132.316 25.0457 128.269 25.0457H125.481C120.201 25.0457 117.311 22.0701 117.311 16.017C117.311 9.96388 120.227 6.96282 125.481 6.96282H132.928L132.936 6.95432Z" fill="#182B84"/>
<path d="M151.606 6.95857V10.1212H142.551C140.647 10.1212 139.822 11.0053 139.822 12.3996C139.822 13.8704 140.758 14.542 142.577 14.542H151.47V17.407H142.5C140.681 17.407 139.746 18.1297 139.746 19.6004C139.746 21.0712 140.63 21.8789 142.475 21.8789H151.631V25.0415H142.475C138.19 25.0415 136.447 22.9246 136.447 20.1105C136.447 18.0446 137.382 16.6589 139.049 15.9618C137.365 15.2646 136.507 13.8704 136.507 11.8895C136.507 8.99895 138.301 6.95857 142.56 6.95857H151.614H151.606Z" fill="#182B84"/>
<path d="M157.336 6.96281V18.7715C157.336 20.5143 158.194 21.8746 161.034 21.8746H168.048V25.0372H160.847C156.052 25.0372 154.182 22.4102 154.182 18.797V6.96281H157.344H157.336Z" fill="#182B84"/>
<path d="M174.084 25.1987H170.599L176.949 9.13074C177.621 7.44742 178.854 6.8013 180.75 6.8013C182.645 6.8013 183.853 7.44742 184.499 9.13074L190.603 25.1987H187.092L181.6 10.6525C181.438 10.2274 181.141 10.0404 180.716 10.0404C180.29 10.0404 179.993 10.2274 179.806 10.6525L174.076 25.1987H174.084Z" fill="#182B84"/>
<path d="M202.607 6.95857C206.866 6.95857 208.66 8.96495 208.66 11.915C208.66 14.0064 207.751 15.2646 206.059 15.9363C207.776 16.6334 208.737 17.9681 208.737 20.0595C208.737 22.9501 206.943 25.0415 202.684 25.0415H194.65C193.629 25.0415 193.153 24.5569 193.153 23.5707V8.42935C193.153 7.43466 193.638 6.95857 194.65 6.95857H202.607ZM196.256 14.593H202.684C204.562 14.593 205.472 13.8959 205.472 12.4251C205.472 10.9543 204.639 10.0702 202.718 10.0702H196.613C196.401 10.0702 196.265 10.1807 196.265 10.3932V14.6015L196.256 14.593ZM196.256 21.6068C196.256 21.8194 196.392 21.9044 196.605 21.9044H202.769C204.673 21.9044 205.557 21.0202 205.557 19.5494C205.557 18.0787 204.622 17.22 202.769 17.22H196.265V21.6153L196.256 21.6068Z" fill="#182B84"/>
</g>
<defs>
<clipPath id="clip0_587_223">
<rect width="208.737" height="32" fill="white"/>
</clipPath>
</defs>
</svg>
