<svg width="14" height="11" viewBox="0 0 14 11" fill="none" xmlns="http://www.w3.org/2000/svg">
<path d="M1.75 0.5C2.00521 0.5 2.21484 0.582031 2.37891 0.746094C2.54297 0.910156 2.625 1.11979 2.625 1.375C2.625 1.63021 2.54297 1.83984 2.37891 2.00391C2.21484 2.16797 2.00521 2.25 1.75 2.25C1.49479 2.25 1.28516 2.16797 1.12109 2.00391C0.957031 1.83984 0.875 1.63021 0.875 1.375C0.875 1.11979 0.957031 0.910156 1.12109 0.746094C1.28516 0.582031 1.49479 0.5 1.75 0.5ZM5.03125 0.71875H13.3438C13.7448 0.755208 13.9635 0.973958 14 1.375C13.9635 1.77604 13.7448 1.99479 13.3438 2.03125H5.03125C4.63021 1.99479 4.41146 1.77604 4.375 1.375C4.41146 0.973958 4.63021 0.755208 5.03125 0.71875ZM5.03125 5.09375H13.3438C13.7448 5.13021 13.9635 5.34896 14 5.75C13.9635 6.15104 13.7448 6.36979 13.3438 6.40625H5.03125C4.63021 6.36979 4.41146 6.15104 4.375 5.75C4.41146 5.34896 4.63021 5.13021 5.03125 5.09375ZM5.03125 9.46875H13.3438C13.7448 9.50521 13.9635 9.72396 14 10.125C13.9635 10.526 13.7448 10.7448 13.3438 10.7812H5.03125C4.63021 10.7448 4.41146 10.526 4.375 10.125C4.41146 9.72396 4.63021 9.50521 5.03125 9.46875ZM2.625 5.75C2.625 6.00521 2.54297 6.21484 2.37891 6.37891C2.21484 6.54297 2.00521 6.625 1.75 6.625C1.49479 6.625 1.28516 6.54297 1.12109 6.37891C0.957031 6.21484 0.875 6.00521 0.875 5.75C0.875 5.49479 0.957031 5.28516 1.12109 5.12109C1.28516 4.95703 1.49479 4.875 1.75 4.875C2.00521 4.875 2.21484 4.95703 2.37891 5.12109C2.54297 5.28516 2.625 5.49479 2.625 5.75ZM1.75 9.25C2.00521 9.25 2.21484 9.33203 2.37891 9.49609C2.54297 9.66016 2.625 9.86979 2.625 10.125C2.625 10.3802 2.54297 10.5898 2.37891 10.7539C2.21484 10.918 2.00521 11 1.75 11C1.49479 11 1.28516 10.918 1.12109 10.7539C0.957031 10.5898 0.875 10.3802 0.875 10.125C0.875 9.86979 0.957031 9.66016 1.12109 9.49609C1.28516 9.33203 1.49479 9.25 1.75 9.25Z" fill="#182B84"/>
</svg>
