<svg width="1141" height="187" viewBox="0 0 1141 187" fill="none" xmlns="http://www.w3.org/2000/svg">
<g opacity="0.9">
<path d="M160.986 182L161.986 56.75H161.236L115.236 182H85.2363L40.4863 56.75H39.7363L40.7363 182H0.48633V5H61.2363L101.486 118.5H102.486L140.986 5H202.736V182H160.986ZM239.256 182V5H358.256V41.25H280.506V74.5H354.006V108.75H280.506V145.5H362.756V182H239.256ZM484.611 51C480.945 46.3333 476.111 42.6667 470.111 40C464.278 37.1667 458.611 35.75 453.111 35.75C450.278 35.75 447.361 36 444.361 36.5C441.528 37 438.945 38 436.611 39.5C434.278 40.8333 432.278 42.6667 430.611 45C429.111 47.1667 428.361 50 428.361 53.5C428.361 56.5 428.945 59 430.111 61C431.445 63 433.278 64.75 435.611 66.25C438.111 67.75 441.028 69.1667 444.361 70.5C447.695 71.6667 451.445 72.9167 455.611 74.25C461.611 76.25 467.861 78.5 474.361 81C480.861 83.3333 486.778 86.5 492.111 90.5C497.445 94.5 501.861 99.5 505.361 105.5C508.861 111.333 510.611 118.667 510.611 127.5C510.611 137.667 508.695 146.5 504.861 154C501.195 161.333 496.195 167.417 489.861 172.25C483.528 177.083 476.278 180.667 468.111 183C459.945 185.333 451.528 186.5 442.861 186.5C430.195 186.5 417.945 184.333 406.111 180C394.278 175.5 384.445 169.167 376.611 161L404.611 132.5C408.945 137.833 414.611 142.333 421.611 146C428.778 149.5 435.861 151.25 442.861 151.25C446.028 151.25 449.111 150.917 452.111 150.25C455.111 149.583 457.695 148.5 459.861 147C462.195 145.5 464.028 143.5 465.361 141C466.695 138.5 467.361 135.5 467.361 132C467.361 128.667 466.528 125.833 464.861 123.5C463.195 121.167 460.778 119.083 457.611 117.25C454.611 115.25 450.778 113.5 446.111 112C441.611 110.333 436.445 108.583 430.611 106.75C424.945 104.917 419.361 102.75 413.861 100.25C408.528 97.75 403.695 94.5833 399.361 90.75C395.195 86.75 391.778 82 389.111 76.5C386.611 70.8333 385.361 64 385.361 56C385.361 46.1667 387.361 37.75 391.361 30.75C395.361 23.75 400.611 18 407.111 13.5C413.611 8.99999 420.945 5.74999 429.111 3.74999C437.278 1.58333 445.528 0.499997 453.861 0.499997C463.861 0.499997 474.028 2.33333 484.361 5.99999C494.861 9.66666 504.028 15.0833 511.861 22.25L484.611 51ZM632.316 51C628.65 46.3333 623.816 42.6667 617.816 40C611.983 37.1667 606.316 35.75 600.816 35.75C597.983 35.75 595.066 36 592.066 36.5C589.233 37 586.65 38 584.316 39.5C581.983 40.8333 579.983 42.6667 578.316 45C576.816 47.1667 576.066 50 576.066 53.5C576.066 56.5 576.65 59 577.816 61C579.15 63 580.983 64.75 583.316 66.25C585.816 67.75 588.733 69.1667 592.066 70.5C595.4 71.6667 599.15 72.9167 603.316 74.25C609.316 76.25 615.566 78.5 622.066 81C628.566 83.3333 634.483 86.5 639.816 90.5C645.15 94.5 649.566 99.5 653.066 105.5C656.566 111.333 658.316 118.667 658.316 127.5C658.316 137.667 656.4 146.5 652.566 154C648.9 161.333 643.9 167.417 637.566 172.25C631.233 177.083 623.983 180.667 615.816 183C607.65 185.333 599.233 186.5 590.566 186.5C577.9 186.5 565.65 184.333 553.816 180C541.983 175.5 532.15 169.167 524.316 161L552.316 132.5C556.65 137.833 562.316 142.333 569.316 146C576.483 149.5 583.566 151.25 590.566 151.25C593.733 151.25 596.816 150.917 599.816 150.25C602.816 149.583 605.4 148.5 607.566 147C609.9 145.5 611.733 143.5 613.066 141C614.4 138.5 615.066 135.5 615.066 132C615.066 128.667 614.233 125.833 612.566 123.5C610.9 121.167 608.483 119.083 605.316 117.25C602.316 115.25 598.483 113.5 593.816 112C589.316 110.333 584.15 108.583 578.316 106.75C572.65 104.917 567.066 102.75 561.566 100.25C556.233 97.75 551.4 94.5833 547.066 90.75C542.9 86.75 539.483 82 536.816 76.5C534.316 70.8333 533.066 64 533.066 56C533.066 46.1667 535.066 37.75 539.066 30.75C543.066 23.75 548.316 18 554.816 13.5C561.316 8.99999 568.65 5.74999 576.816 3.74999C584.983 1.58333 593.233 0.499997 601.566 0.499997C611.566 0.499997 621.733 2.33333 632.066 5.99999C642.566 9.66666 651.733 15.0833 659.566 22.25L632.316 51ZM806.521 182L792.771 147.25H724.271L711.271 182H664.771L739.021 5H780.521L854.021 182H806.521ZM759.021 52.25L736.521 113H781.021L759.021 52.25ZM1021.51 171.25C1012.84 175.75 1002.67 179.417 991.006 182.25C979.506 185.083 966.923 186.5 953.256 186.5C939.089 186.5 926.006 184.25 914.006 179.75C902.173 175.25 891.923 168.917 883.256 160.75C874.756 152.583 868.089 142.833 863.256 131.5C858.423 120 856.006 107.25 856.006 93.25C856.006 79.0833 858.423 66.25 863.256 54.75C868.256 43.25 875.089 33.5 883.756 25.5C892.423 17.3333 902.589 11.0833 914.256 6.74999C925.923 2.41665 938.506 0.249986 952.006 0.249986C966.006 0.249986 979.006 2.41665 991.006 6.74999C1003.01 10.9167 1012.76 16.5833 1020.26 23.75L993.256 54.5C989.089 49.6667 983.589 45.75 976.756 42.75C969.923 39.5833 962.173 38 953.506 38C946.006 38 939.089 39.4167 932.756 42.25C926.423 44.9167 920.923 48.75 916.256 53.75C911.589 58.5833 907.923 64.4167 905.256 71.25C902.756 77.9167 901.506 85.25 901.506 93.25C901.506 101.417 902.673 108.917 905.006 115.75C907.339 122.583 910.756 128.5 915.256 133.5C919.923 138.333 925.589 142.167 932.256 145C939.089 147.667 946.839 149 955.506 149C960.506 149 965.256 148.667 969.756 148C974.256 147.167 978.423 145.917 982.256 144.25V112H948.506V77.5H1021.51V171.25ZM1056.39 182V5H1175.39V41.25H1097.64V74.5H1171.14V108.75H1097.64V145.5H1179.89V182H1056.39Z" fill="url(#paint0_linear_380_642)" style="mix-blend-mode:overlay"/>
</g>
<defs>
<linearGradient id="paint0_linear_380_642" x1="586" y1="-9" x2="586" y2="215" gradientUnits="userSpaceOnUse">
<stop stop-color="white"/>
<stop offset="1" stop-color="#5B5A5A"/>
</linearGradient>
</defs>
</svg>
