<svg width="1348" height="187" viewBox="0 0 1348 187" fill="none" xmlns="http://www.w3.org/2000/svg">
<g opacity="0.9">
<path d="M75.75 92.75C75.75 106.75 73.3333 119.583 68.5 131.25C63.6667 142.75 56.9167 152.667 48.25 161C39.75 169.167 29.5833 175.5 17.75 180C5.91667 184.5 -6.91666 186.75 -20.75 186.75C-34.5833 186.75 -47.4167 184.5 -59.25 180C-70.9167 175.5 -81.0833 169.167 -89.75 161C-98.25 152.667 -104.917 142.75 -109.75 131.25C-114.583 119.583 -117 106.75 -117 92.75C-117 78.5833 -114.583 65.8333 -109.75 54.5C-104.917 43 -98.25 33.25 -89.75 25.25C-81.0833 17.25 -70.9167 11.0833 -59.25 6.74999C-47.4167 2.41665 -34.5833 0.249986 -20.75 0.249986C-6.91666 0.249986 5.91667 2.41665 17.75 6.74999C29.5833 11.0833 39.75 17.25 48.25 25.25C56.9167 33.25 63.6667 43 68.5 54.5C73.3333 65.8333 75.75 78.5833 75.75 92.75ZM30 92.75C30 85.0833 28.75 77.9167 26.25 71.25C23.75 64.5833 20.25 58.9167 15.75 54.25C11.4167 49.4167 6.08334 45.6667 -0.249993 43C-6.41666 40.1667 -13.25 38.75 -20.75 38.75C-28.25 38.75 -35.0833 40.1667 -41.25 43C-47.4167 45.6667 -52.75 49.4167 -57.25 54.25C-61.75 58.9167 -65.25 64.5833 -67.75 71.25C-70.0833 77.9167 -71.25 85.0833 -71.25 92.75C-71.25 100.75 -70 108.167 -67.5 115C-65 121.667 -61.5833 127.417 -57.25 132.25C-52.75 137.083 -47.4167 140.917 -41.25 143.75C-35.0833 146.417 -28.25 147.75 -20.75 147.75C-13.25 147.75 -6.41666 146.417 -0.249993 143.75C5.91667 140.917 11.25 137.083 15.75 132.25C20.25 127.417 23.75 121.667 26.25 115C28.75 108.167 30 100.75 30 92.75ZM253.896 115.25C253.896 125.917 252.063 135.667 248.396 144.5C244.896 153.167 239.813 160.667 233.146 167C226.48 173.167 218.396 178 208.896 181.5C199.563 185 189.146 186.75 177.646 186.75C165.98 186.75 155.48 185 146.146 181.5C136.813 178 128.896 173.167 122.396 167C115.896 160.667 110.896 153.167 107.396 144.5C103.896 135.667 102.146 125.917 102.146 115.25V5H144.646V111.75C144.646 116.583 145.23 121.167 146.396 125.5C147.73 129.833 149.646 133.75 152.146 137.25C154.813 140.583 158.23 143.25 162.396 145.25C166.73 147.25 171.896 148.25 177.896 148.25C183.896 148.25 188.98 147.25 193.146 145.25C197.48 143.25 200.98 140.583 203.646 137.25C206.313 133.75 208.23 129.833 209.396 125.5C210.563 121.167 211.146 116.583 211.146 111.75V5H253.896V115.25ZM383.217 182L344.967 111.75H330.467V182H288.467V5H355.967C364.467 5 372.717 5.91666 380.717 7.74999C388.883 9.41666 396.133 12.3333 402.467 16.5C408.967 20.6667 414.133 26.1667 417.967 33C421.8 39.8333 423.717 48.3333 423.717 58.5C423.717 70.5 420.467 80.5833 413.967 88.75C407.467 96.9167 398.467 102.75 386.967 106.25L433.217 182H383.217ZM381.467 59.25C381.467 55.0833 380.55 51.75 378.717 49.25C377.05 46.5833 374.8 44.5833 371.967 43.25C369.3 41.75 366.217 40.75 362.717 40.25C359.383 39.75 356.133 39.5 352.967 39.5H330.217V80.75H350.467C353.967 80.75 357.55 80.5 361.217 80C364.883 79.3333 368.217 78.25 371.217 76.75C374.217 75.25 376.633 73.0833 378.467 70.25C380.467 67.4167 381.467 63.75 381.467 59.25ZM650.988 59.5C650.988 69.8333 649.072 78.5833 645.238 85.75C641.405 92.75 636.238 98.4167 629.738 102.75C623.238 107.083 615.738 110.25 607.238 112.25C598.738 114.25 589.905 115.25 580.738 115.25H559.488V182H516.738V5H581.738C591.405 5 600.405 6 608.738 7.99999C617.238 9.83332 624.572 12.9167 630.738 17.25C637.072 21.4167 641.988 27 645.488 34C649.155 40.8333 650.988 49.3333 650.988 59.5ZM608.238 59.75C608.238 55.5833 607.405 52.1667 605.738 49.5C604.072 46.8333 601.822 44.75 598.988 43.25C596.155 41.75 592.905 40.75 589.238 40.25C585.738 39.75 582.072 39.5 578.238 39.5H559.488V81.25H577.488C581.488 81.25 585.322 80.9167 588.988 80.25C592.655 79.5833 595.905 78.4167 598.738 76.75C601.738 75.0833 604.072 72.9167 605.738 70.25C607.405 67.4167 608.238 63.9167 608.238 59.75ZM771.4 182L733.15 111.75H718.65V182H676.65V5H744.15C752.65 5 760.9 5.91666 768.9 7.74999C777.067 9.41666 784.317 12.3333 790.65 16.5C797.15 20.6667 802.317 26.1667 806.15 33C809.984 39.8333 811.9 48.3333 811.9 58.5C811.9 70.5 808.65 80.5833 802.15 88.75C795.65 96.9167 786.65 102.75 775.15 106.25L821.4 182H771.4ZM769.65 59.25C769.65 55.0833 768.734 51.75 766.9 49.25C765.234 46.5833 762.984 44.5833 760.15 43.25C757.484 41.75 754.4 40.75 750.9 40.25C747.567 39.75 744.317 39.5 741.15 39.5H718.4V80.75H738.65C742.15 80.75 745.734 80.5 749.4 80C753.067 79.3333 756.4 78.25 759.4 76.75C762.4 75.25 764.817 73.0833 766.65 70.25C768.65 67.4167 769.65 63.75 769.65 59.25ZM1026.92 92.75C1026.92 106.75 1024.51 119.583 1019.67 131.25C1014.84 142.75 1008.09 152.667 999.422 161C990.922 169.167 980.755 175.5 968.922 180C957.089 184.5 944.255 186.75 930.422 186.75C916.589 186.75 903.755 184.5 891.922 180C880.255 175.5 870.089 169.167 861.422 161C852.922 152.667 846.255 142.75 841.422 131.25C836.589 119.583 834.172 106.75 834.172 92.75C834.172 78.5833 836.589 65.8333 841.422 54.5C846.255 43 852.922 33.25 861.422 25.25C870.089 17.25 880.255 11.0833 891.922 6.74999C903.755 2.41665 916.589 0.249986 930.422 0.249986C944.255 0.249986 957.089 2.41665 968.922 6.74999C980.755 11.0833 990.922 17.25 999.422 25.25C1008.09 33.25 1014.84 43 1019.67 54.5C1024.51 65.8333 1026.92 78.5833 1026.92 92.75ZM981.172 92.75C981.172 85.0833 979.922 77.9167 977.422 71.25C974.922 64.5833 971.422 58.9167 966.922 54.25C962.589 49.4167 957.255 45.6667 950.922 43C944.755 40.1667 937.922 38.75 930.422 38.75C922.922 38.75 916.089 40.1667 909.922 43C903.755 45.6667 898.422 49.4167 893.922 54.25C889.422 58.9167 885.922 64.5833 883.422 71.25C881.089 77.9167 879.922 85.0833 879.922 92.75C879.922 100.75 881.172 108.167 883.672 115C886.172 121.667 889.589 127.417 893.922 132.25C898.422 137.083 903.755 140.917 909.922 143.75C916.089 146.417 922.922 147.75 930.422 147.75C937.922 147.75 944.755 146.417 950.922 143.75C957.089 140.917 962.422 137.083 966.922 132.25C971.422 127.417 974.922 121.667 977.422 115C979.922 108.167 981.172 100.75 981.172 92.75ZM1142.79 121.5C1142.79 128.5 1141.95 135.833 1140.29 143.5C1138.79 151.167 1135.87 158.25 1131.54 164.75C1127.37 171.083 1121.45 176.333 1113.79 180.5C1106.29 184.667 1096.54 186.75 1084.54 186.75C1069.54 186.75 1057.04 182.917 1047.04 175.25C1037.04 167.417 1030.37 157.417 1027.04 145.25L1064.79 132.5C1065.95 137.167 1068.04 140.917 1071.04 143.75C1074.2 146.583 1078.04 148 1082.54 148C1089.54 148 1094.12 145.583 1096.29 140.75C1098.62 135.917 1099.79 129.583 1099.79 121.75V5H1142.79V121.5ZM1178.36 182V5H1297.36V41.25H1219.61V74.5H1293.11V108.75H1219.61V145.5H1301.86V182H1178.36ZM1485.96 157.5C1478.13 166.5 1468.46 173.667 1456.96 179C1445.46 184.167 1432.21 186.75 1417.21 186.75C1403.55 186.75 1390.88 184.5 1379.21 180C1367.71 175.5 1357.71 169.167 1349.21 161C1340.71 152.667 1334.05 142.75 1329.21 131.25C1324.38 119.75 1321.96 107.083 1321.96 93.25C1321.96 79.0833 1324.38 66.25 1329.21 54.75C1334.21 43.25 1341.05 33.5 1349.71 25.5C1358.38 17.3333 1368.55 11.0833 1380.21 6.74999C1391.88 2.41665 1404.46 0.249986 1417.96 0.249986C1430.46 0.249986 1442.71 2.49999 1454.71 6.99999C1466.88 11.3333 1476.71 17.75 1484.21 26.25L1455.21 55.25C1451.21 49.75 1445.96 45.6667 1439.46 43C1432.96 40.3333 1426.3 39 1419.46 39C1411.96 39 1405.05 40.4167 1398.71 43.25C1392.55 45.9167 1387.21 49.6667 1382.71 54.5C1378.21 59.3333 1374.71 65.0833 1372.21 71.75C1369.71 78.25 1368.46 85.4167 1368.46 93.25C1368.46 101.25 1369.71 108.583 1372.21 115.25C1374.71 121.917 1378.13 127.667 1382.46 132.5C1386.96 137.167 1392.3 140.833 1398.46 143.5C1404.63 146.167 1411.38 147.5 1418.71 147.5C1427.21 147.5 1434.63 145.833 1440.96 142.5C1447.3 139.167 1452.38 134.833 1456.21 129.5L1485.96 157.5ZM1578.57 41.5V182H1535.82V41.5H1485.82V5H1628.57V41.5H1578.57Z" fill="url(#paint0_linear_92_680)" style="mix-blend-mode:overlay"/>
</g>
<defs>
<linearGradient id="paint0_linear_92_680" x1="751.5" y1="-9" x2="751.5" y2="215" gradientUnits="userSpaceOnUse">
<stop stop-color="white"/>
<stop offset="1" stop-color="#5B5A5A"/>
</linearGradient>
</defs>
</svg>
