<svg width="1348" height="187" viewBox="0 0 1348 187" fill="none" xmlns="http://www.w3.org/2000/svg">
<g opacity="0.9">
<path d="M75.9922 59.5C75.9922 69.8333 74.0755 78.5833 70.2422 85.75C66.4089 92.75 61.2422 98.4167 54.7422 102.75C48.2422 107.083 40.7422 110.25 32.2422 112.25C23.7422 114.25 14.9089 115.25 5.74219 115.25H-15.5078V182H-58.2578V5H6.74219C16.4089 5 25.4089 6 33.7422 7.99999C42.2422 9.83332 49.5755 12.9167 55.7422 17.25C62.0755 21.4167 66.9922 27 70.4922 34C74.1589 40.8333 75.9922 49.3333 75.9922 59.5ZM33.2422 59.75C33.2422 55.5833 32.4089 52.1667 30.7422 49.5C29.0755 46.8333 26.8255 44.75 23.9922 43.25C21.1589 41.75 17.9089 40.75 14.2422 40.25C10.7422 39.75 7.07552 39.5 3.24219 39.5H-15.5078V81.25H2.49219C6.49219 81.25 10.3255 80.9167 13.9922 80.25C17.6589 79.5833 20.9089 78.4167 23.7422 76.75C26.7422 75.0833 29.0755 72.9167 30.7422 70.25C32.4089 67.4167 33.2422 63.9167 33.2422 59.75ZM213.404 182V108H144.404V182H101.654V5H144.404V72H213.404V5H256.154V182H213.404ZM292.572 182V5H335.572V182H292.572ZM372.162 182V5H415.162V144.75H483.662V182H372.162ZM680.686 92.75C680.686 106.75 678.269 119.583 673.436 131.25C668.602 142.75 661.852 152.667 653.186 161C644.686 169.167 634.519 175.5 622.686 180C610.852 184.5 598.019 186.75 584.186 186.75C570.352 186.75 557.519 184.5 545.686 180C534.019 175.5 523.852 169.167 515.186 161C506.686 152.667 500.019 142.75 495.186 131.25C490.352 119.583 487.936 106.75 487.936 92.75C487.936 78.5833 490.352 65.8333 495.186 54.5C500.019 43 506.686 33.25 515.186 25.25C523.852 17.25 534.019 11.0833 545.686 6.74999C557.519 2.41665 570.352 0.249986 584.186 0.249986C598.019 0.249986 610.852 2.41665 622.686 6.74999C634.519 11.0833 644.686 17.25 653.186 25.25C661.852 33.25 668.602 43 673.436 54.5C678.269 65.8333 680.686 78.5833 680.686 92.75ZM634.936 92.75C634.936 85.0833 633.686 77.9167 631.186 71.25C628.686 64.5833 625.186 58.9167 620.686 54.25C616.352 49.4167 611.019 45.6667 604.686 43C598.519 40.1667 591.686 38.75 584.186 38.75C576.686 38.75 569.852 40.1667 563.686 43C557.519 45.6667 552.186 49.4167 547.686 54.25C543.186 58.9167 539.686 64.5833 537.186 71.25C534.852 77.9167 533.686 85.0833 533.686 92.75C533.686 100.75 534.936 108.167 537.436 115C539.936 121.667 543.352 127.417 547.686 132.25C552.186 137.083 557.519 140.917 563.686 143.75C569.852 146.417 576.686 147.75 584.186 147.75C591.686 147.75 598.519 146.417 604.686 143.75C610.852 140.917 616.186 137.083 620.686 132.25C625.186 127.417 628.686 121.667 631.186 115C633.686 108.167 634.936 100.75 634.936 92.75ZM802.332 51C798.665 46.3333 793.832 42.6667 787.832 40C781.999 37.1667 776.332 35.75 770.832 35.75C767.999 35.75 765.082 36 762.082 36.5C759.249 37 756.665 38 754.332 39.5C751.999 40.8333 749.999 42.6667 748.332 45C746.832 47.1667 746.082 50 746.082 53.5C746.082 56.5 746.665 59 747.832 61C749.165 63 750.999 64.75 753.332 66.25C755.832 67.75 758.749 69.1667 762.082 70.5C765.415 71.6667 769.165 72.9167 773.332 74.25C779.332 76.25 785.582 78.5 792.082 81C798.582 83.3333 804.499 86.5 809.832 90.5C815.165 94.5 819.582 99.5 823.082 105.5C826.582 111.333 828.332 118.667 828.332 127.5C828.332 137.667 826.415 146.5 822.582 154C818.915 161.333 813.915 167.417 807.582 172.25C801.249 177.083 793.999 180.667 785.832 183C777.665 185.333 769.249 186.5 760.582 186.5C747.915 186.5 735.665 184.333 723.832 180C711.999 175.5 702.165 169.167 694.332 161L722.332 132.5C726.665 137.833 732.332 142.333 739.332 146C746.499 149.5 753.582 151.25 760.582 151.25C763.749 151.25 766.832 150.917 769.832 150.25C772.832 149.583 775.415 148.5 777.582 147C779.915 145.5 781.749 143.5 783.082 141C784.415 138.5 785.082 135.5 785.082 132C785.082 128.667 784.249 125.833 782.582 123.5C780.915 121.167 778.499 119.083 775.332 117.25C772.332 115.25 768.499 113.5 763.832 112C759.332 110.333 754.165 108.583 748.332 106.75C742.665 104.917 737.082 102.75 731.582 100.25C726.249 97.75 721.415 94.5833 717.082 90.75C712.915 86.75 709.499 82 706.832 76.5C704.332 70.8333 703.082 64 703.082 56C703.082 46.1667 705.082 37.75 709.082 30.75C713.082 23.75 718.332 18 724.832 13.5C731.332 8.99999 738.665 5.74999 746.832 3.74999C754.999 1.58333 763.249 0.499997 771.582 0.499997C781.582 0.499997 791.749 2.33333 802.082 5.99999C812.582 9.66666 821.749 15.0833 829.582 22.25L802.332 51ZM1041.04 92.75C1041.04 106.75 1038.62 119.583 1033.79 131.25C1028.95 142.75 1022.2 152.667 1013.54 161C1005.04 169.167 994.87 175.5 983.037 180C971.204 184.5 958.37 186.75 944.537 186.75C930.704 186.75 917.87 184.5 906.037 180C894.37 175.5 884.204 169.167 875.537 161C867.037 152.667 860.37 142.75 855.537 131.25C850.704 119.583 848.287 106.75 848.287 92.75C848.287 78.5833 850.704 65.8333 855.537 54.5C860.37 43 867.037 33.25 875.537 25.25C884.204 17.25 894.37 11.0833 906.037 6.74999C917.87 2.41665 930.704 0.249986 944.537 0.249986C958.37 0.249986 971.204 2.41665 983.037 6.74999C994.87 11.0833 1005.04 17.25 1013.54 25.25C1022.2 33.25 1028.95 43 1033.79 54.5C1038.62 65.8333 1041.04 78.5833 1041.04 92.75ZM995.287 92.75C995.287 85.0833 994.037 77.9167 991.537 71.25C989.037 64.5833 985.537 58.9167 981.037 54.25C976.704 49.4167 971.37 45.6667 965.037 43C958.87 40.1667 952.037 38.75 944.537 38.75C937.037 38.75 930.204 40.1667 924.037 43C917.87 45.6667 912.537 49.4167 908.037 54.25C903.537 58.9167 900.037 64.5833 897.537 71.25C895.204 77.9167 894.037 85.0833 894.037 92.75C894.037 100.75 895.287 108.167 897.787 115C900.287 121.667 903.704 127.417 908.037 132.25C912.537 137.083 917.87 140.917 924.037 143.75C930.204 146.417 937.037 147.75 944.537 147.75C952.037 147.75 958.87 146.417 965.037 143.75C971.204 140.917 976.537 137.083 981.037 132.25C985.537 127.417 989.037 121.667 991.537 115C994.037 108.167 995.287 100.75 995.287 92.75ZM1203.43 59.5C1203.43 69.8333 1201.52 78.5833 1197.68 85.75C1193.85 92.75 1188.68 98.4167 1182.18 102.75C1175.68 107.083 1168.18 110.25 1159.68 112.25C1151.18 114.25 1142.35 115.25 1133.18 115.25H1111.93V182H1069.18V5H1134.18C1143.85 5 1152.85 6 1161.18 7.99999C1169.68 9.83332 1177.02 12.9167 1183.18 17.25C1189.52 21.4167 1194.43 27 1197.93 34C1201.6 40.8333 1203.43 49.3333 1203.43 59.5ZM1160.68 59.75C1160.68 55.5833 1159.85 52.1667 1158.18 49.5C1156.52 46.8333 1154.27 44.75 1151.43 43.25C1148.6 41.75 1145.35 40.75 1141.68 40.25C1138.18 39.75 1134.52 39.5 1130.68 39.5H1111.93V81.25H1129.93C1133.93 81.25 1137.77 80.9167 1141.43 80.25C1145.1 79.5833 1148.35 78.4167 1151.18 76.75C1154.18 75.0833 1156.52 72.9167 1158.18 70.25C1159.85 67.4167 1160.68 63.9167 1160.68 59.75ZM1340.85 182V108H1271.85V182H1229.1V5H1271.85V72H1340.85V5H1383.6V182H1340.85ZM1506.01 107V182H1463.26V107L1396.76 5H1448.51L1486.26 70.5L1524.01 5H1574.01L1506.01 107Z" fill="url(#paint0_linear_380_1031)" style="mix-blend-mode:overlay"/>
</g>
<defs>
<linearGradient id="paint0_linear_380_1031" x1="746" y1="-9" x2="746" y2="215" gradientUnits="userSpaceOnUse">
<stop stop-color="white"/>
<stop offset="1" stop-color="#5B5A5A"/>
</linearGradient>
</defs>
</svg>
