<svg width="1263" height="187" viewBox="0 0 1263 187" fill="none" xmlns="http://www.w3.org/2000/svg">
<g opacity="0.9">
<path d="M92.9648 41.5V182H50.2148V41.5H0.214844V5H142.965V41.5H92.9648ZM339.41 92.75C339.41 106.75 336.994 119.583 332.16 131.25C327.327 142.75 320.577 152.667 311.91 161C303.41 169.167 293.244 175.5 281.41 180C269.577 184.5 256.743 186.75 242.91 186.75C229.077 186.75 216.243 184.5 204.41 180C192.743 175.5 182.577 169.167 173.91 161C165.41 152.667 158.743 142.75 153.91 131.25C149.077 119.583 146.66 106.75 146.66 92.75C146.66 78.5833 149.077 65.8333 153.91 54.5C158.743 43 165.41 33.25 173.91 25.25C182.577 17.25 192.743 11.0833 204.41 6.74999C216.243 2.41665 229.077 0.249986 242.91 0.249986C256.743 0.249986 269.577 2.41665 281.41 6.74999C293.244 11.0833 303.41 17.25 311.91 25.25C320.577 33.25 327.327 43 332.16 54.5C336.994 65.8333 339.41 78.5833 339.41 92.75ZM293.66 92.75C293.66 85.0833 292.41 77.9167 289.91 71.25C287.41 64.5833 283.91 58.9167 279.41 54.25C275.077 49.4167 269.743 45.6667 263.41 43C257.243 40.1667 250.41 38.75 242.91 38.75C235.41 38.75 228.577 40.1667 222.41 43C216.243 45.6667 210.91 49.4167 206.41 54.25C201.91 58.9167 198.41 64.5833 195.91 71.25C193.577 77.9167 192.41 85.0833 192.41 92.75C192.41 100.75 193.66 108.167 196.16 115C198.66 121.667 202.077 127.417 206.41 132.25C210.91 137.083 216.243 140.917 222.41 143.75C228.577 146.417 235.41 147.75 242.91 147.75C250.41 147.75 257.243 146.417 263.41 143.75C269.577 140.917 274.91 137.083 279.41 132.25C283.91 127.417 287.41 121.667 289.91 115C292.41 108.167 293.66 100.75 293.66 92.75ZM501.807 59.5C501.807 69.8333 499.89 78.5833 496.057 85.75C492.223 92.75 487.057 98.4167 480.557 102.75C474.057 107.083 466.557 110.25 458.057 112.25C449.557 114.25 440.723 115.25 431.557 115.25H410.307V182H367.557V5H432.557C442.223 5 451.223 6 459.557 7.99999C468.057 9.83332 475.39 12.9167 481.557 17.25C487.89 21.4167 492.807 27 496.307 34C499.973 40.8333 501.807 49.3333 501.807 59.5ZM459.057 59.75C459.057 55.5833 458.223 52.1667 456.557 49.5C454.89 46.8333 452.64 44.75 449.807 43.25C446.973 41.75 443.723 40.75 440.057 40.25C436.557 39.75 432.89 39.5 429.057 39.5H410.307V81.25H428.307C432.307 81.25 436.14 80.9167 439.807 80.25C443.473 79.5833 446.723 78.4167 449.557 76.75C452.557 75.0833 454.89 72.9167 456.557 70.25C458.223 67.4167 459.057 63.9167 459.057 59.75ZM750.469 182L751.469 56.75H750.719L704.719 182H674.719L629.969 56.75H629.219L630.219 182H589.969V5H650.719L690.969 118.5H691.969L730.469 5H792.219V182H750.469ZM828.738 182V5H947.738V41.25H869.988V74.5H943.488V108.75H869.988V145.5H952.238V182H828.738ZM1141.09 182L1142.09 56.75H1141.34L1095.34 182H1065.34L1020.59 56.75H1019.84L1020.84 182H980.594V5H1041.34L1081.59 118.5H1082.59L1121.09 5H1182.84V182H1141.09ZM1357.36 130.5C1357.36 140.167 1355.45 148.333 1351.61 155C1347.78 161.5 1342.7 166.75 1336.36 170.75C1330.03 174.75 1322.78 177.667 1314.61 179.5C1306.61 181.167 1298.36 182 1289.86 182H1219.36V5H1289.86C1296.7 5 1303.7 5.74999 1310.86 7.24998C1318.03 8.58332 1324.53 11 1330.36 14.5C1336.2 17.8333 1340.95 22.4167 1344.61 28.25C1348.28 34.0833 1350.11 41.5 1350.11 50.5C1350.11 60.3333 1347.45 68.5 1342.11 75C1336.78 81.3333 1329.78 85.9167 1321.11 88.75V89.25C1326.11 90.0833 1330.78 91.6667 1335.11 94C1339.61 96.1667 1343.45 99 1346.61 102.5C1349.95 106 1352.53 110.083 1354.36 114.75C1356.36 119.417 1357.36 124.667 1357.36 130.5ZM1308.86 56.25C1308.86 50.25 1306.53 45.9167 1301.86 43.25C1297.36 40.4167 1290.61 39 1281.61 39H1260.61V75.5H1283.61C1291.61 75.5 1297.78 73.9167 1302.11 70.75C1306.61 67.4167 1308.86 62.5833 1308.86 56.25ZM1314.61 126.5C1314.61 119.167 1311.86 114.083 1306.36 111.25C1300.86 108.417 1293.53 107 1284.36 107H1260.61V147.5H1284.61C1287.95 147.5 1291.36 147.25 1294.86 146.75C1298.53 146.083 1301.78 145 1304.61 143.5C1307.61 142 1310.03 139.917 1311.86 137.25C1313.7 134.417 1314.61 130.833 1314.61 126.5ZM1385.62 182V5H1504.62V41.25H1426.87V74.5H1500.37V108.75H1426.87V145.5H1509.12V182H1385.62ZM1632.23 182L1593.98 111.75H1579.48V182H1537.48V5H1604.98C1613.48 5 1621.73 5.91666 1629.73 7.74999C1637.9 9.41666 1645.15 12.3333 1651.48 16.5C1657.98 20.6667 1663.15 26.1667 1666.98 33C1670.81 39.8333 1672.73 48.3333 1672.73 58.5C1672.73 70.5 1669.48 80.5833 1662.98 88.75C1656.48 96.9167 1647.48 102.75 1635.98 106.25L1682.23 182H1632.23ZM1630.48 59.25C1630.48 55.0833 1629.56 51.75 1627.73 49.25C1626.06 46.5833 1623.81 44.5833 1620.98 43.25C1618.31 41.75 1615.23 40.75 1611.73 40.25C1608.4 39.75 1605.15 39.5 1601.98 39.5H1579.23V80.75H1599.48C1602.98 80.75 1606.56 80.5 1610.23 80C1613.9 79.3333 1617.23 78.25 1620.23 76.75C1623.23 75.25 1625.65 73.0833 1627.48 70.25C1629.48 67.4167 1630.48 63.75 1630.48 59.25Z" fill="url(#paint0_linear_380_1157)" style="mix-blend-mode:overlay"/>
</g>
<defs>
<linearGradient id="paint0_linear_380_1157" x1="841.5" y1="-9" x2="841.5" y2="215" gradientUnits="userSpaceOnUse">
<stop stop-color="white"/>
<stop offset="1" stop-color="#5B5A5A"/>
</linearGradient>
</defs>
</svg>
