<svg width="54" height="41" viewBox="0 0 54 41" fill="none" xmlns="http://www.w3.org/2000/svg">
<g clip-path="url(#clip0_248_5329)">
<g clip-path="url(#clip1_248_5329)">
<g clip-path="url(#clip2_248_5329)">
<path d="M20.25 0.939941H5.0625C2.27087 0.939941 0 3.18277 0 5.93994V20.9399C0 23.6971 2.27087 25.9399 5.0625 25.9399H11.8743L9.31255 38.955C9.21615 39.4441 9.34634 39.9495 9.66686 40.3336C9.98738 40.7177 10.4645 40.9399 10.9688 40.9399H16.4358C17.9033 40.9399 19.2077 39.9918 19.6518 38.6189L24.5643 27.1101C24.5923 27.0442 24.6162 26.9767 24.6352 26.9083C25.0851 25.3116 25.3125 23.6604 25.3125 22.0011V5.93994C25.3125 3.18277 23.0416 0.939941 20.25 0.939941Z" fill="#2BC8EB"/>
<path d="M48.9377 0.939941H33.7502C30.9586 0.939941 28.6877 3.18277 28.6877 5.93994V20.9399C28.6877 23.6971 30.9586 25.9399 33.7502 25.9399H40.5629L38.0003 38.955C37.9031 39.4441 38.0333 39.9495 38.3546 40.3336C38.6743 40.7177 39.1522 40.9399 39.6565 40.9399H45.1244C46.5927 40.9399 47.8962 39.9918 48.3395 38.6181L53.2521 27.1101C53.2801 27.0442 53.3031 26.9767 53.3229 26.9083C53.7728 25.31 54.0002 23.6588 54.0002 22.0011V5.93994C54.0002 3.18277 51.7294 0.939941 48.9377 0.939941Z" fill="#2BC8EB"/>
</g>
</g>
</g>
<defs>
<clipPath id="clip0_248_5329">
<rect width="54" height="40" fill="white" transform="translate(0 0.939941)"/>
</clipPath>
<clipPath id="clip1_248_5329">
<rect width="54" height="40" fill="white" transform="translate(0 0.939941)"/>
</clipPath>
<clipPath id="clip2_248_5329">
<rect width="54" height="40" fill="white" transform="translate(0 0.939941)"/>
</clipPath>
</defs>
</svg>
