<svg width="40" height="40" viewBox="0 0 41 40" fill="none" xmlns="http://www.w3.org/2000/svg">
<path d="M20.3526 28.4001C20.4483 28.4319 20.5517 28.4319 20.6474 28.4001C25.3221 26.8518 28.124 24.323 29.466 20.4417C30.6817 16.9247 30.6558 12.4268 30.6351 8.81266C30.6345 8.70031 30.5935 8.59192 30.5197 8.50723C30.4458 8.42254 30.344 8.36719 30.2328 8.35126C26.7862 7.85602 23.5299 6.46516 20.7891 4.31759C20.7066 4.25296 20.6048 4.21785 20.5 4.21785C20.3952 4.21785 20.2934 4.25296 20.2109 4.31759C17.4702 6.4653 14.2138 7.85628 10.7672 8.35157C10.656 8.3675 10.5542 8.42286 10.4803 8.50754C10.4065 8.59223 10.3656 8.70062 10.3649 8.81298C10.3442 12.4271 10.318 16.9253 11.5341 20.442C12.8757 24.3229 15.6779 26.8516 20.3526 28.4001ZM11.3002 9.21798C14.6413 8.67128 17.7989 7.31899 20.5 5.27805C23.2011 7.31898 26.3587 8.67126 29.6998 9.21798C29.7181 12.6883 29.6998 16.8954 28.5799 20.1355C27.3555 23.6774 24.7859 26.0082 20.5 27.4609C16.2141 26.0083 13.6445 23.6775 12.4202 20.1356C11.3002 16.8956 11.2819 12.6884 11.3002 9.21798ZM40.0312 32.2599H39.309V11.1797C39.3085 10.7442 39.1353 10.3267 38.8273 10.0188C38.5194 9.71087 38.1019 9.53767 37.6664 9.53719H32.3859C32.3859 9.16589 32.3854 8.79287 32.3844 8.41813C32.3835 8.02464 32.3829 7.62938 32.3827 7.23235C32.3827 7.113 32.3372 6.99816 32.2554 6.91123C32.1736 6.8243 32.0618 6.77184 31.9427 6.76454C27.8039 6.5059 23.8781 4.83983 20.8166 2.04282C20.7302 1.96376 20.6173 1.91992 20.5002 1.91992C20.383 1.91992 20.2702 1.96376 20.1838 2.04282C17.1221 4.8398 13.1962 6.50578 9.05734 6.7643C8.93822 6.7716 8.82637 6.82407 8.74459 6.911C8.66282 6.99792 8.61728 7.11277 8.61727 7.23212C8.61727 7.62904 8.61672 8.02433 8.61562 8.41798C8.61484 8.79298 8.61435 9.16597 8.61414 9.53696H3.33359C2.89807 9.53744 2.48053 9.71067 2.17259 10.0186C1.86464 10.3266 1.69145 10.7442 1.69102 11.1797V32.2602H0.96875C0.84443 32.2602 0.725201 32.3095 0.637294 32.3975C0.549386 32.4854 0.5 32.6046 0.5 32.7289V35.1703C0.500868 35.9419 0.807752 36.6816 1.35332 37.2271C1.8989 37.7727 2.6386 38.0796 3.41016 38.0805H37.5898C38.3614 38.0796 39.1012 37.7727 39.6468 37.2271C40.1923 36.6814 40.4992 35.9417 40.5 35.1701V32.7287C40.5 32.6044 40.4506 32.4851 40.3627 32.3972C40.2748 32.3093 40.1556 32.2599 40.0312 32.2599ZM38.3715 11.1797V32.2602H37.2309V12.084C37.2309 11.9597 37.1815 11.8404 37.0936 11.7525C37.0057 11.6646 36.8864 11.6152 36.7621 11.6152H32.3738C32.379 11.2373 32.3824 10.8571 32.3841 10.4746H37.6664C37.8533 10.4748 38.0326 10.5491 38.1648 10.6813C38.297 10.8135 38.3713 10.9928 38.3715 11.1797ZM4.7068 32.2599V12.5527H8.6443C8.72719 15.7816 9.02469 18.8151 10.0518 21.4984C10.8409 23.5604 11.992 25.2452 13.5699 26.6488C15.3112 28.1977 17.5329 29.3738 20.3617 30.2445C20.4516 30.2722 20.5477 30.2722 20.6375 30.2445C23.4663 29.3738 25.6879 28.1976 27.4293 26.6488C29.0074 25.2452 30.1581 23.5604 30.9473 21.4984C31.9745 18.815 32.272 15.7816 32.3549 12.5531H36.2928V32.2599H4.7068ZM27.1327 33.1974L26.6045 34.8233H14.3956L13.8672 33.1974H27.1327ZM9.55312 8.41993C9.5537 8.16993 9.55414 7.91923 9.55445 7.66782C13.6045 7.3204 17.4384 5.69154 20.5 3.01759C23.5615 5.6915 27.3954 7.32037 31.4453 7.66782C31.4453 7.91923 31.4458 8.1699 31.4466 8.41985C31.4661 17.7743 31.483 25.8583 20.4998 29.3056C9.5168 25.8584 9.53359 17.7743 9.55312 8.41993ZM2.62852 11.1797C2.62872 10.9928 2.70308 10.8136 2.83526 10.6814C2.96745 10.5492 3.14667 10.4749 3.33359 10.4747H8.61594C8.61766 10.8572 8.62107 11.2374 8.62617 11.6153H4.23805C4.11373 11.6153 3.9945 11.6647 3.90659 11.7526C3.81868 11.8405 3.7693 11.9597 3.7693 12.0841V32.2599H2.62867L2.62852 11.1797ZM39.5625 35.1701C39.5619 35.6931 39.3539 36.1945 38.9841 36.5643C38.6143 36.9341 38.1128 37.1422 37.5898 37.1427H3.41016C2.88715 37.1422 2.38574 36.9341 2.01592 36.5643C1.6461 36.1945 1.43808 35.6931 1.4375 35.1701V33.1974H12.8816L13.6092 35.437C13.6398 35.5311 13.6994 35.6131 13.7795 35.6713C13.8596 35.7295 13.956 35.7608 14.055 35.7608H26.9453C27.0443 35.7608 27.1407 35.7294 27.2208 35.6713C27.3009 35.6131 27.3605 35.531 27.3911 35.4369L28.1187 33.1974H39.5625V35.1701ZM4.55117 35.1701C4.55139 35.2315 4.53948 35.2924 4.51612 35.3493C4.49276 35.4061 4.45841 35.4578 4.41505 35.5013C4.37169 35.5449 4.32016 35.5794 4.26341 35.603C4.20667 35.6266 4.14583 35.6388 4.08438 35.6388H4.08047C3.98784 35.6384 3.89741 35.6106 3.82058 35.5589C3.74375 35.5071 3.68397 35.4338 3.6488 35.3481C3.61362 35.2624 3.60461 35.1682 3.62292 35.0774C3.64123 34.9866 3.68602 34.9033 3.75166 34.8379C3.81729 34.7726 3.90081 34.7281 3.99169 34.7102C4.08256 34.6923 4.17671 34.7017 4.26225 34.7372C4.34779 34.7727 4.42089 34.8328 4.47231 34.9099C4.52373 34.9869 4.55117 35.0775 4.55117 35.1701ZM5.94383 35.1701C5.94404 35.2315 5.93213 35.2924 5.90878 35.3493C5.88543 35.4061 5.85109 35.4578 5.80773 35.5013C5.76438 35.5448 5.71286 35.5794 5.65612 35.603C5.59939 35.6266 5.53856 35.6388 5.47711 35.6388H5.47312C5.3805 35.6384 5.29006 35.6106 5.21324 35.5589C5.13641 35.5071 5.07663 35.4338 5.04145 35.3481C5.00627 35.2624 4.99727 35.1682 5.01557 35.0774C5.03388 34.9866 5.07868 34.9033 5.14431 34.8379C5.20994 34.7726 5.29347 34.7281 5.38435 34.7102C5.47522 34.6923 5.56937 34.7017 5.65491 34.7372C5.74045 34.7727 5.81354 34.8328 5.86496 34.9099C5.91638 34.9869 5.94383 35.0775 5.94383 35.1701ZM7.33648 35.1701C7.3367 35.2315 7.32479 35.2924 7.30144 35.3493C7.27808 35.4061 7.24375 35.4578 7.20039 35.5013C7.15704 35.5448 7.10551 35.5794 7.04878 35.603C6.99205 35.6266 6.93121 35.6388 6.86977 35.6388H6.86578C6.77316 35.6384 6.68272 35.6106 6.60589 35.5589C6.52906 35.5071 6.46929 35.4338 6.43411 35.3481C6.39893 35.2624 6.38992 35.1682 6.40823 35.0774C6.42654 34.9866 6.47133 34.9033 6.53697 34.8379C6.6026 34.7726 6.68613 34.7281 6.777 34.7102C6.86788 34.6923 6.96203 34.7017 7.04757 34.7372C7.1331 34.7727 7.2062 34.8328 7.25762 34.9099C7.30904 34.9869 7.33648 35.0775 7.33648 35.1701ZM10.1278 35.1701C10.128 35.2629 10.1007 35.3537 10.0493 35.431C9.99797 35.5084 9.92485 35.5687 9.8392 35.6045C9.75355 35.6403 9.65922 35.6499 9.56811 35.6322C9.477 35.6144 9.3932 35.57 9.32728 35.5047C9.26137 35.4393 9.21629 35.3559 9.19775 35.2649C9.17921 35.174 9.18803 35.0796 9.2231 34.9936C9.25817 34.9077 9.31792 34.834 9.3948 34.782C9.47168 34.73 9.56225 34.7019 9.65508 34.7013H9.65906C9.78338 34.7013 9.90261 34.7507 9.99052 34.8386C10.0784 34.9265 10.1278 35.0458 10.1278 35.1701ZM8.73516 35.1701C8.73536 35.2629 8.70805 35.3537 8.65668 35.431C8.60532 35.5084 8.53219 35.5687 8.44655 35.6045C8.3609 35.6403 8.26656 35.6499 8.17545 35.6322C8.08434 35.6144 8.00054 35.57 7.93463 35.5047C7.86871 35.4393 7.82364 35.3559 7.80509 35.2649C7.78655 35.174 7.79537 35.0796 7.83044 34.9936C7.86551 34.9077 7.92526 34.834 8.00214 34.782C8.07903 34.73 8.1696 34.7019 8.26242 34.7013H8.26641C8.39073 34.7013 8.50995 34.7507 8.59786 34.8386C8.68577 34.9265 8.73516 35.0458 8.73516 35.1701ZM30.8722 35.1701C30.872 35.0773 30.8993 34.9864 30.9507 34.9091C31.002 34.8318 31.0752 34.7714 31.1608 34.7356C31.2465 34.6998 31.3408 34.6902 31.4319 34.708C31.523 34.7258 31.6068 34.7702 31.6727 34.8355C31.7387 34.9009 31.7837 34.9843 31.8023 35.0753C31.8208 35.1663 31.812 35.2607 31.7769 35.3466C31.7418 35.4326 31.682 35.5062 31.6051 35.5582C31.5283 35.6102 31.4377 35.6383 31.3448 35.6388H31.3409C31.2166 35.6388 31.0974 35.5894 31.0095 35.5015C30.9216 35.4136 30.8722 35.2944 30.8722 35.1701ZM32.2648 35.1701C32.2646 35.0773 32.292 34.9865 32.3433 34.9091C32.3947 34.8318 32.4678 34.7714 32.5535 34.7356C32.6391 34.6998 32.7334 34.6902 32.8245 34.708C32.9157 34.7258 32.9995 34.7701 33.0654 34.8355C33.1313 34.9009 33.1764 34.9843 33.1949 35.0752C33.2135 35.1662 33.2046 35.2606 33.1696 35.3466C33.1345 35.4325 33.0747 35.5061 32.9979 35.5582C32.921 35.6102 32.8304 35.6382 32.7376 35.6388H32.7336C32.6093 35.6388 32.49 35.5894 32.4021 35.5015C32.3142 35.4136 32.2648 35.2944 32.2648 35.1701ZM33.6575 35.1701C33.6573 35.0773 33.6846 34.9865 33.736 34.9091C33.7873 34.8318 33.8605 34.7714 33.9461 34.7356C34.0318 34.6998 34.1261 34.6902 34.2172 34.708C34.3083 34.7258 34.3921 34.7701 34.458 34.8355C34.5239 34.9009 34.569 34.9843 34.5876 35.0752C34.6061 35.1662 34.5973 35.2606 34.5622 35.3466C34.5271 35.4325 34.4674 35.5061 34.3905 35.5582C34.3136 35.6102 34.2231 35.6382 34.1302 35.6388H34.1262C34.0019 35.6388 33.8827 35.5894 33.7948 35.5015C33.7069 35.4136 33.6575 35.2944 33.6575 35.1701ZM36.4488 35.1701C36.4486 35.1086 36.4605 35.0477 36.4839 34.9909C36.5072 34.9341 36.5415 34.8824 36.5849 34.8388C36.6283 34.7953 36.6798 34.7607 36.7365 34.7371C36.7933 34.7135 36.8541 34.7014 36.9155 34.7013H36.9195C37.0122 34.7017 37.1026 34.7295 37.1794 34.7813C37.2562 34.833 37.316 34.9064 37.3512 34.9921C37.3864 35.0777 37.3954 35.1719 37.3771 35.2627C37.3588 35.3535 37.314 35.4369 37.2483 35.5022C37.1827 35.5676 37.0992 35.612 37.0083 35.63C36.9174 35.6479 36.8233 35.6385 36.7377 35.603C36.6522 35.5674 36.5791 35.5073 36.5277 35.4303C36.4763 35.3533 36.4488 35.2627 36.4488 35.1701ZM35.0561 35.1701C35.0559 35.1086 35.0678 35.0477 35.0911 34.9909C35.1145 34.934 35.1488 34.8824 35.1922 34.8388C35.2356 34.7953 35.2871 34.7607 35.3438 34.7371C35.4006 34.7135 35.4614 34.7014 35.5229 34.7013H35.5269C35.6195 34.7017 35.7099 34.7296 35.7867 34.7813C35.8636 34.8331 35.9233 34.9064 35.9585 34.9921C35.9937 35.0778 36.0027 35.172 35.9843 35.2628C35.966 35.3536 35.9212 35.4369 35.8556 35.5023C35.7899 35.5676 35.7064 35.612 35.6155 35.63C35.5247 35.6479 35.4305 35.6385 35.345 35.603C35.2595 35.5674 35.1864 35.5073 35.135 35.4303C35.0835 35.3533 35.0561 35.2627 35.0561 35.1701ZM18.8577 21.2884C18.9201 21.2884 18.9818 21.2759 19.0392 21.2518C19.0967 21.2276 19.1488 21.1923 19.1924 21.1477L27.1699 13.0127C27.213 12.9688 27.2471 12.9168 27.2701 12.8597C27.2931 12.8026 27.3046 12.7415 27.304 12.6799C27.3034 12.6184 27.2907 12.5575 27.2666 12.5009C27.2424 12.4442 27.2074 12.3929 27.1634 12.3498L25.8183 11.0306C25.7743 10.9875 25.7223 10.9535 25.6652 10.9305C25.6081 10.9075 25.547 10.896 25.4855 10.8966C25.4239 10.8972 25.3631 10.9099 25.3065 10.934C25.2498 10.9581 25.1985 10.9932 25.1554 11.0371L18.8577 17.459L15.8445 14.3863C15.7575 14.2976 15.6388 14.2471 15.5145 14.2458C15.3902 14.2446 15.2705 14.2928 15.1817 14.3799L13.8366 15.6992C13.7926 15.7423 13.7576 15.7937 13.7334 15.8503C13.7093 15.907 13.6966 15.9678 13.696 16.0294C13.6954 16.0909 13.7069 16.152 13.7299 16.2091C13.7529 16.2662 13.787 16.3182 13.8301 16.3622L18.523 21.1478C18.5667 21.1923 18.6188 21.2277 18.6762 21.2518C18.7337 21.2759 18.7954 21.2884 18.8577 21.2884ZM15.5034 15.3777L18.5234 18.457C18.5671 18.5015 18.6192 18.5369 18.6766 18.561C18.7341 18.5852 18.7958 18.5976 18.8581 18.5976C18.9205 18.5976 18.9822 18.5852 19.0396 18.561C19.0971 18.5369 19.1492 18.5015 19.1928 18.457L25.497 12.0283L26.1727 12.6909L18.8581 20.1502L14.828 16.0404L15.5034 15.3777Z" fill="white"/>
</svg>
