<svg xmlns="http://www.w3.org/2000/svg" id="_レイヤー_4" data-name="レイヤー 4" viewBox="0 0 529 79" style="background: #fff;">
  <defs>
    <style>
      .cls-1 {
        fill: #e1ebf4;
      }
    </style>
  </defs>
  <path class="cls-1" d="m516.85,69.22c-3.31-5.03-6.74-10.22-13.6-10.22s-10.29,5.2-13.61,10.22c-3.31,5.03-6.45,9.78-12.77,9.78s-9.46-4.75-12.77-9.78c-3.31-5.03-6.74-10.22-13.61-10.22s-10.29,5.2-13.61,10.22c-3.31,5.03-6.45,9.78-12.77,9.78s-9.46-4.75-12.77-9.78c-3.31-5.03-6.74-10.22-13.61-10.22s-10.29,5.2-13.61,10.22c-3.31,5.03-6.45,9.78-12.77,9.78s-9.46-4.75-12.77-9.78c-3.31-5.03-6.74-10.22-13.61-10.22s-10.29,5.2-13.61,10.22c-3.31,5.03-6.45,9.78-12.77,9.78s-9.46-4.75-12.77-9.78c-3.32-5.03-6.74-10.22-13.61-10.22s-10.29,5.2-13.61,10.22c-3.31,5.03-6.45,9.78-12.77,9.78s-9.46-4.75-12.77-9.78c-3.32-5.03-6.74-10.22-13.61-10.22s-10.29,5.2-13.61,10.22c-3.31,5.03-6.45,9.78-12.77,9.78s-9.46-4.75-12.77-9.78c-3.32-5.03-6.74-10.22-13.61-10.22s-10.29,5.2-13.61,10.22c-3.32,5.03-6.45,9.78-12.77,9.78s-9.46-4.75-12.77-9.78c-3.32-5.03-6.74-10.22-13.61-10.22s-10.29,5.2-13.61,10.22c-3.31,5.03-6.45,9.78-12.77,9.78s-9.46-4.75-12.77-9.78c-3.32-5.03-6.74-10.22-13.61-10.22s-10.29,5.2-13.61,10.22c-3.31,5.03-6.45,9.78-12.77,9.78s-9.46-4.75-12.77-9.78c-3.32-5.03-6.74-10.22-13.61-10.22s-10.29,5.2-13.61,10.22c-3.32,5.03-6.45,9.78-12.77,9.78-.72,0-1.4-.07-2.04-.19V0h529v78.97c-5.91-.31-8.94-4.89-12.15-9.75Z"/>
</svg>